<svg width="24" height="24" viewBox="0 0 24 24" fill="none" xmlns="http://www.w3.org/2000/svg">
<path d="M21 13C21 17.4183 16.9706 21 12 21C7.02945 21 3 17.4183 3 13M7.5 6.07025C8.8238 5.3896 10.3607 5 12 5C13.6393 5 15.1762 5.3896 16.5 6.07025" stroke="url(#paint0_linear_13_131)" stroke-width="2" stroke-linecap="round"/>
<path d="M3 13V4.24406C3 3.37849 4.02502 2.92172 4.66864 3.50048L7.5 6.04649" stroke="url(#paint1_linear_13_131)" stroke-width="2" stroke-linecap="round" stroke-linejoin="round"/>
<path d="M21 13V4.24406C21 3.37849 19.975 2.92172 19.3314 3.50048L16.5 6.04649" stroke="url(#paint2_linear_13_131)" stroke-width="2" stroke-linecap="round" stroke-linejoin="round"/>
<path d="M15 12C15.5523 12 16 11.5523 16 11C16 10.4477 15.5523 10 15 10C14.4477 10 14 10.4477 14 11C14 11.5523 14.4477 12 15 12Z" fill="url(#paint3_linear_13_131)"/>
<path d="M9 12C9.55228 12 10 11.5523 10 11C10 10.4477 9.55228 10 9 10C8.44772 10 8 10.4477 8 11C8 11.5523 8.44772 12 9 12Z" fill="url(#paint4_linear_13_131)"/>
<path d="M12 15C12.5523 15 13 14.5523 13 14C13 13.4477 12.5523 13 12 13C11.4477 13 11 13.4477 11 14C11 14.5523 11.4477 15 12 15Z" fill="url(#paint5_linear_13_131)"/>
<path d="M8 15L2 15.5" stroke="url(#paint6_linear_13_131)" stroke-width="2" stroke-linecap="round" stroke-linejoin="round"/>
<path d="M9.5 17.5L3.5 20.5" stroke="url(#paint7_linear_13_131)" stroke-width="2" stroke-linecap="round" stroke-linejoin="round"/>
<path d="M16 15L22 15.5" stroke="url(#paint8_linear_13_131)" stroke-width="2" stroke-linecap="round" stroke-linejoin="round"/>
<path d="M14.5 17.5L20.5 20.5" stroke="url(#paint9_linear_13_131)" stroke-width="2" stroke-linecap="round" stroke-linejoin="round"/>
<defs>
<linearGradient id="paint0_linear_13_131" x1="12" y1="5" x2="12" y2="21" gradientUnits="userSpaceOnUse">
<stop stop-color="#14FF00"/>
<stop offset="1" stop-color="#14FF00" stop-opacity="0.34"/>
</linearGradient>
<linearGradient id="paint1_linear_13_131" x1="5.25" y1="3.2421" x2="5.25" y2="13" gradientUnits="userSpaceOnUse">
<stop stop-color="#14FF00"/>
<stop offset="1" stop-color="#14FF00" stop-opacity="0.34"/>
</linearGradient>
<linearGradient id="paint2_linear_13_131" x1="18.75" y1="3.2421" x2="18.75" y2="13" gradientUnits="userSpaceOnUse">
<stop stop-color="#14FF00"/>
<stop offset="1" stop-color="#14FF00" stop-opacity="0.34"/>
</linearGradient>
<linearGradient id="paint3_linear_13_131" x1="15" y1="10" x2="15" y2="12" gradientUnits="userSpaceOnUse">
<stop stop-color="#14FF00"/>
<stop offset="1" stop-color="#14FF00" stop-opacity="0.34"/>
</linearGradient>
<linearGradient id="paint4_linear_13_131" x1="9" y1="10" x2="9" y2="12" gradientUnits="userSpaceOnUse">
<stop stop-color="#14FF00"/>
<stop offset="1" stop-color="#14FF00" stop-opacity="0.34"/>
</linearGradient>
<linearGradient id="paint5_linear_13_131" x1="12" y1="13" x2="12" y2="15" gradientUnits="userSpaceOnUse">
<stop stop-color="#14FF00"/>
<stop offset="1" stop-color="#14FF00" stop-opacity="0.34"/>
</linearGradient>
<linearGradient id="paint6_linear_13_131" x1="5" y1="15" x2="5" y2="15.5" gradientUnits="userSpaceOnUse">
<stop stop-color="#14FF00"/>
<stop offset="1" stop-color="#14FF00" stop-opacity="0.34"/>
</linearGradient>
<linearGradient id="paint7_linear_13_131" x1="6.5" y1="17.5" x2="6.5" y2="20.5" gradientUnits="userSpaceOnUse">
<stop stop-color="#14FF00"/>
<stop offset="1" stop-color="#14FF00" stop-opacity="0.34"/>
</linearGradient>
<linearGradient id="paint8_linear_13_131" x1="19" y1="15" x2="19" y2="15.5" gradientUnits="userSpaceOnUse">
<stop stop-color="#14FF00"/>
<stop offset="1" stop-color="#14FF00" stop-opacity="0.34"/>
</linearGradient>
<linearGradient id="paint9_linear_13_131" x1="17.5" y1="17.5" x2="17.5" y2="20.5" gradientUnits="userSpaceOnUse">
<stop stop-color="#14FF00"/>
<stop offset="1" stop-color="#14FF00" stop-opacity="0.34"/>
</linearGradient>
</defs>
</svg>
