<svg width="32" height="32" viewBox="0 0 32 32" fill="none" xmlns="http://www.w3.org/2000/svg">
<path d="M16 8.58802V13.028M27.4533 20.2267C28.4267 21.8534 27.6533 23.96 25.8533 24.56C19.4783 26.68 12.5884 26.68 6.21333 24.56C4.29333 23.92 3.56 21.9734 4.61333 20.2267L6.30667 17.4C6.77333 16.6267 7.14667 15.2534 7.14667 14.36V11.56C7.14492 10.3928 7.37331 9.23661 7.81879 8.1577C8.26426 7.07879 8.91808 6.09829 9.74284 5.27229C10.5676 4.44629 11.5471 3.79101 12.6254 3.34391C13.7036 2.89681 14.8594 2.66669 16.0267 2.66669C20.9067 2.66669 24.9067 6.66669 24.9067 11.5467V14.3467C24.9067 14.5867 24.9333 14.8534 24.9733 15.1334" stroke="#FFD600" stroke-width="1.5" stroke-miterlimit="10" stroke-linecap="round"/>
<path d="M20.44 25.0933C20.44 27.5333 18.44 29.5333 16 29.5333C14.7867 29.5333 13.6667 29.0267 12.8667 28.2267C12.0667 27.4267 11.56 26.3067 11.56 25.0933" stroke="#FFD600" stroke-width="1.5" stroke-miterlimit="10"/>
</svg>
