<svg width="25" height="24" viewBox="0 0 25 24" fill="none" xmlns="http://www.w3.org/2000/svg">
<path d="M14.8696 9.3V12.25H17.4996C17.6896 12.25 17.8296 12.42 17.7896 12.61L17.4096 14.51C17.3796 14.65 17.2596 14.75 17.1196 14.75H14.8696V22H11.8696V14.75H10.1696C9.99963 14.75 9.86963 14.62 9.86963 14.45V12.55C9.86963 12.38 9.99963 12.25 10.1696 12.25H11.8696V9C11.8696 7.34 13.2096 6 14.8696 6H17.5696C17.7396 6 17.8696 6.13 17.8696 6.3V8.7C17.8696 8.87 17.7396 9 17.5696 9H15.1696C14.9996 9 14.8696 9.13 14.8696 9.3V9.3Z" stroke="black" stroke-width="1.5" stroke-miterlimit="10" stroke-linecap="round"/>
<path d="M2.86963 12.83V15C2.86963 20 4.86963 22 9.86963 22H15.8696C20.8696 22 22.8696 20 22.8696 15V9C22.8696 4 20.8696 2 15.8696 2H9.86963C4.86963 2 2.86963 4 2.86963 9" stroke="black" stroke-width="1.5" stroke-linecap="round" stroke-linejoin="round"/>
</svg>
