<svg width="24" height="24" viewBox="0 0 24 24" fill="none" xmlns="http://www.w3.org/2000/svg">
<path d="M12 22.75C6.07 22.75 1.25 17.93 1.25 12C1.25 6.07 6.07 1.25 12 1.25C17.93 1.25 22.75 6.07 22.75 12C22.75 12.41 22.41 12.75 22 12.75C21.59 12.75 21.25 12.41 21.25 12C21.25 6.9 17.1 2.75 12 2.75C6.9 2.75 2.75 6.9 2.75 12C2.75 17.1 6.9 21.25 12 21.25C12.41 21.25 12.75 21.59 12.75 22C12.75 22.41 12.41 22.75 12 22.75Z" fill="black"/>
<path d="M9.00194 21.75H8.00194C7.59194 21.75 7.25194 21.41 7.25194 21C7.25194 20.59 7.57194 20.26 7.98194 20.25C6.41194 14.862 6.41194 9.13797 7.98194 3.75001C7.78668 3.74429 7.60131 3.66282 7.46506 3.52284C7.32881 3.38286 7.25238 3.19535 7.25194 3.00001C7.25194 2.59001 7.59194 2.25001 8.00194 2.25001H9.00194C9.24194 2.25001 9.47194 2.37001 9.61194 2.56001C9.75194 2.76001 9.79194 3.01001 9.71194 3.24001C7.83195 8.93213 7.83195 15.0779 9.71194 20.77C9.79194 21 9.75194 21.25 9.61194 21.45C9.47194 21.65 9.24194 21.75 9.00194 21.75V21.75ZM16.4589 12.748C16.0489 12.748 15.7089 12.408 15.7089 11.998C15.7089 9.01801 15.2289 6.06801 14.2889 3.23801C14.1589 2.84801 14.3689 2.41801 14.7589 2.28801C15.1489 2.15801 15.5789 2.36801 15.7089 2.75801C16.6989 5.73801 17.2089 8.84801 17.2089 11.998C17.2089 12.408 16.8689 12.748 16.4589 12.748Z" fill="black"/>
<path d="M11.9999 17.21C9.19994 17.21 6.42994 16.81 3.74994 16.02C3.73994 16.42 3.40994 16.75 2.99994 16.75C2.58994 16.75 2.24994 16.41 2.24994 16V15C2.24994 14.76 2.36994 14.53 2.55994 14.39C2.75994 14.25 3.00994 14.21 3.23994 14.29C6.06994 15.23 9.01994 15.71 11.9999 15.71C12.4099 15.71 12.7499 16.05 12.7499 16.46C12.7499 16.87 12.4099 17.21 11.9999 17.21ZM20.9999 9.75001C20.9199 9.75001 20.8399 9.74001 20.7599 9.71001C15.0678 7.83001 8.92205 7.83001 3.22994 9.71001C3.04161 9.77269 2.83614 9.75847 2.65824 9.67046C2.48033 9.58244 2.34438 9.42774 2.27994 9.24001C2.14994 8.85001 2.35994 8.42001 2.74994 8.29001C8.7458 6.30004 15.2241 6.30004 21.2199 8.29001C21.6099 8.42001 21.8199 8.85001 21.6899 9.24001C21.6099 9.55001 21.3099 9.75001 20.9999 9.75001V9.75001ZM18.1999 22.15C16.0199 22.15 14.2499 20.38 14.2499 18.2C14.2499 16.02 16.0199 14.25 18.1999 14.25C20.3799 14.25 22.1499 16.02 22.1499 18.2C22.1499 20.38 20.3799 22.15 18.1999 22.15ZM18.1999 15.75C16.8499 15.75 15.7499 16.85 15.7499 18.2C15.7499 19.55 16.8499 20.65 18.1999 20.65C19.5499 20.65 20.6499 19.55 20.6499 18.2C20.6499 16.85 19.5499 15.75 18.1999 15.75V15.75Z" fill="black"/>
<path d="M22.001 22.751C21.811 22.751 21.621 22.681 21.471 22.531L20.471 21.531C20.3317 21.3897 20.2537 21.1993 20.2537 21.001C20.2537 20.8026 20.3317 20.6123 20.471 20.471C20.761 20.181 21.241 20.181 21.531 20.471L22.531 21.471C22.821 21.761 22.821 22.241 22.531 22.531C22.381 22.681 22.191 22.751 22.001 22.751V22.751Z" fill="black"/>
</svg>
