<svg width="24" height="24" viewBox="0 0 24 24" fill="none" xmlns="http://www.w3.org/2000/svg">
<path d="M18.5 12C18.5 10.2761 17.8152 8.62279 16.5962 7.40381C15.3772 6.18482 13.7239 5.5 12 5.5C10.2761 5.5 8.62279 6.18482 7.40381 7.40381C6.18482 8.62279 5.5 10.2761 5.5 12" stroke="url(#paint0_linear_13_147)" stroke-width="1.5" stroke-linecap="round" stroke-linejoin="round"/>
<path d="M4.99 4.99L4.86 4.86M19.01 4.99L19.14 4.86L19.01 4.99ZM12 2.08V2V2.08ZM2.08 12H2H2.08ZM22 12H21.92H22Z" stroke="url(#paint1_linear_13_147)" stroke-width="2" stroke-linecap="round" stroke-linejoin="round"/>
<path d="M4 15H20M6 18H18M9 21H15" stroke="url(#paint2_linear_13_147)" stroke-width="1.5" stroke-miterlimit="10" stroke-linecap="round" stroke-linejoin="round"/>
<defs>
<linearGradient id="paint0_linear_13_147" x1="12" y1="5.5" x2="12" y2="12" gradientUnits="userSpaceOnUse">
<stop stop-color="#FF6B00"/>
<stop offset="1" stop-color="#FF6B00" stop-opacity="0.34"/>
</linearGradient>
<linearGradient id="paint1_linear_13_147" x1="12" y1="2" x2="12" y2="12" gradientUnits="userSpaceOnUse">
<stop stop-color="#FF6B00"/>
<stop offset="1" stop-color="#FF6B00" stop-opacity="0.34"/>
</linearGradient>
<linearGradient id="paint2_linear_13_147" x1="12" y1="15" x2="12" y2="21" gradientUnits="userSpaceOnUse">
<stop stop-color="#FF6B00"/>
<stop offset="1" stop-color="#FF6B00" stop-opacity="0.34"/>
</linearGradient>
</defs>
</svg>
