<svg width="20" height="20" viewBox="0 0 20 20" fill="none" xmlns="http://www.w3.org/2000/svg">
<path d="M9.9999 11.1912C10.3413 11.1912 10.6794 11.124 10.9949 10.9933C11.3103 10.8626 11.5969 10.6711 11.8384 10.4297C12.0798 10.1883 12.2713 9.90163 12.402 9.58619C12.5327 9.27074 12.5999 8.93265 12.5999 8.59121C12.5999 8.24977 12.5327 7.91168 12.402 7.59623C12.2713 7.28079 12.0798 6.99417 11.8384 6.75273C11.5969 6.5113 11.3103 6.31979 10.9949 6.18912C10.6794 6.05846 10.3413 5.99121 9.9999 5.99121C9.31034 5.99121 8.64902 6.26514 8.16142 6.75273C7.67383 7.24033 7.3999 7.90165 7.3999 8.59121C7.3999 9.28077 7.67383 9.94209 8.16142 10.4297C8.64902 10.9173 9.31034 11.1912 9.9999 11.1912V11.1912Z" stroke="black" stroke-width="1.5"/>
<path d="M3.01675 7.07533C4.65842 -0.141339 15.3501 -0.133006 16.9834 7.08366C17.9417 11.317 15.3084 14.9003 13.0001 17.117C12.1935 17.8949 11.1165 18.3297 9.99592 18.3297C8.87529 18.3297 7.79835 17.8949 6.99175 17.117C4.69175 14.9003 2.05842 11.3087 3.01675 7.07533V7.07533Z" stroke="black" stroke-width="1.5"/>
</svg>
