<svg width="32" height="32" viewBox="0 0 32 32" fill="none" xmlns="http://www.w3.org/2000/svg">
<path d="M17.56 2.66669C11.0533 2.66669 5.78667 7.58669 5.78667 13.6534C5.78667 14 5.8 14.3334 5.84 14.6667C7.02667 13.8934 8.45333 13.4534 10 13.4534C14.0533 13.4534 17.3333 16.52 17.3333 20.3067C17.3333 21.8934 16.7467 23.36 15.76 24.52C16.3467 24.6 16.9467 24.64 17.56 24.64L23.1467 27.96C24.0933 28.5334 25.28 27.76 25.1467 26.6534L24.6267 22.44C27.48 20.44 29.3333 17.2534 29.3333 13.6534C29.3333 9.56002 26.9333 5.98669 23.36 4.09335" stroke="#00FF0A" stroke-width="1.5" stroke-linecap="round" stroke-linejoin="round"/>
<path d="M5.84001 14.6666C7.02667 13.8933 8.45334 13.4533 10 13.4533C14.0533 13.4533 17.3333 16.52 17.3333 20.3066C17.3333 21.8933 16.7467 23.36 15.76 24.52C14.44 26.12 12.3467 27.1466 10 27.1466L6.52 29.2133C5.93334 29.5733 5.18667 29.08 5.26667 28.4L5.6 25.7733C3.81334 24.5333 2.66667 22.5466 2.66667 20.3066C2.66667 19.9066 2.70667 19.52 2.77334 19.1466" stroke="#00FF0A" stroke-width="1.5" stroke-linecap="round" stroke-linejoin="round"/>
</svg>
