<svg width="24" height="24" viewBox="0 0 24 24" fill="none" xmlns="http://www.w3.org/2000/svg">
<path d="M15.905 21.2027C20.9891 19.0432 23.3586 13.1747 21.2041 8.096C19.0495 3.01725 13.1755 0.637845 8.0964 2.7973C3.01732 4.95677 0.637751 10.8253 2.79736 15.904C4.95697 20.9828 10.8259 23.3621 15.905 21.2027Z" stroke="url(#paint0_linear_175_1994)" stroke-width="2" stroke-miterlimit="2" stroke-linejoin="round"/>
<path d="M7.99981 3C7.25296 6.50515 8.96836 10.0983 11.9998 12" stroke="url(#paint1_linear_175_1994)" stroke-width="2" stroke-miterlimit="2" stroke-linecap="round" stroke-linejoin="round"/>
<path d="M6 20C9.485 18.87 11.87 15.66 12 12" stroke="url(#paint2_linear_175_1994)" stroke-width="2" stroke-miterlimit="2" stroke-linecap="round" stroke-linejoin="round"/>
<path d="M22 12.5001C19.275 10.1638 14.75 10.2017 12 12.0001" stroke="url(#paint3_linear_175_1994)" stroke-width="2" stroke-miterlimit="2" stroke-linecap="round" stroke-linejoin="round"/>
<path d="M8.5 7.99999C8.5 7.99999 14.28 3.75498 20.5 6.99999" stroke="url(#paint4_linear_175_1994)" stroke-width="2" stroke-miterlimit="2" stroke-linejoin="round"/>
<path d="M10 16.5C10 16.5 3.795 14.01 3.5 7" stroke="url(#paint5_linear_175_1994)" stroke-width="2" stroke-miterlimit="2" stroke-linejoin="round"/>
<path d="M16.9999 11C16.9999 11 17.7799 18.25 11.8599 22.015" stroke="url(#paint6_linear_175_1994)" stroke-width="2" stroke-miterlimit="2" stroke-linejoin="round"/>
<defs>
<linearGradient id="paint0_linear_175_1994" x1="12" y1="2" x2="12" y2="22" gradientUnits="userSpaceOnUse">
<stop stop-color="#8F00FF"/>
<stop offset="1" stop-color="#8F00FF" stop-opacity="0.34"/>
</linearGradient>
<linearGradient id="paint1_linear_175_1994" x1="9.91275" y1="3" x2="9.91275" y2="12" gradientUnits="userSpaceOnUse">
<stop stop-color="#8F00FF"/>
<stop offset="1" stop-color="#8F00FF" stop-opacity="0.34"/>
</linearGradient>
<linearGradient id="paint2_linear_175_1994" x1="9" y1="12" x2="9" y2="20" gradientUnits="userSpaceOnUse">
<stop stop-color="#8F00FF"/>
<stop offset="1" stop-color="#8F00FF" stop-opacity="0.34"/>
</linearGradient>
<linearGradient id="paint3_linear_175_1994" x1="17" y1="10.6947" x2="17" y2="12.5001" gradientUnits="userSpaceOnUse">
<stop stop-color="#8F00FF"/>
<stop offset="1" stop-color="#8F00FF" stop-opacity="0.34"/>
</linearGradient>
<linearGradient id="paint4_linear_175_1994" x1="14.5" y1="5.77808" x2="14.5" y2="7.99999" gradientUnits="userSpaceOnUse">
<stop stop-color="#8F00FF"/>
<stop offset="1" stop-color="#8F00FF" stop-opacity="0.34"/>
</linearGradient>
<linearGradient id="paint5_linear_175_1994" x1="6.75" y1="7" x2="6.75" y2="16.5" gradientUnits="userSpaceOnUse">
<stop stop-color="#8F00FF"/>
<stop offset="1" stop-color="#8F00FF" stop-opacity="0.34"/>
</linearGradient>
<linearGradient id="paint6_linear_175_1994" x1="14.4468" y1="11" x2="14.4468" y2="22.015" gradientUnits="userSpaceOnUse">
<stop stop-color="#8F00FF"/>
<stop offset="1" stop-color="#8F00FF" stop-opacity="0.34"/>
</linearGradient>
</defs>
</svg>
