<svg width="25" height="24" viewBox="0 0 25 24" fill="none" xmlns="http://www.w3.org/2000/svg">
<path d="M12.4348 2C17.9548 2 22.4348 6.48 22.4348 12C22.4348 17.52 17.9548 22 12.4348 22C10.5948 22 8.86482 21.5 7.37482 20.63L2.43482 22L3.77482 17C2.89555 15.4805 2.43329 13.7556 2.43482 12C2.43482 8.3 4.44482 5.07 7.43482 3.34" stroke="black" stroke-width="1.5" stroke-miterlimit="10" stroke-linecap="round" stroke-linejoin="round"/>
<path d="M17.4348 15.17C17.4348 15.35 17.3948 15.54 17.3048 15.72C17.0637 16.2147 16.6516 16.6054 16.1448 16.82C15.8448 16.95 15.5148 17.01 15.1648 17.01C14.6548 17.01 14.1048 16.89 13.5348 16.64C12.9548 16.39 12.3848 16.06 11.8148 15.65C11.2348 15.23 10.6948 14.76 10.1748 14.25C9.65481 13.73 9.19481 13.18 8.77481 12.61C8.36481 12.04 8.03481 11.47 7.79481 10.9C7.55481 10.33 7.43481 9.78 7.43481 9.26C7.43481 8.92 7.49481 8.59 7.61481 8.29C7.73481 7.98 7.92481 7.7 8.19481 7.45C8.51481 7.13 8.86481 6.98 9.23481 6.98C9.37481 6.98 9.51481 7.01 9.64481 7.07C9.77481 7.13 9.89481 7.22 9.98481 7.35L11.1448 8.99C11.2348 9.12 11.3048 9.23 11.3448 9.34C11.3948 9.45 11.4148 9.55 11.4148 9.65C11.4148 9.77 11.3748 9.89 11.3048 10.01C11.2348 10.13 11.1448 10.25 11.0248 10.37L10.6448 10.77C10.5848 10.83 10.5648 10.89 10.5648 10.97C10.5648 11.01 10.5748 11.05 10.5848 11.09C10.6048 11.13 10.6148 11.16 10.6248 11.19C10.7148 11.36 10.8748 11.57 11.0948 11.83C11.563 12.3802 12.0746 12.8918 12.6248 13.36C12.8848 13.58 13.1048 13.73 13.2748 13.82C13.3048 13.83 13.3348 13.85 13.3648 13.86C13.4048 13.88 13.4448 13.88 13.4948 13.88C13.5848 13.88 13.6448 13.85 13.7048 13.79L14.0848 13.41C14.2148 13.28 14.3348 13.19 14.4448 13.13C14.5648 13.06 14.6748 13.02 14.8048 13.02C14.9048 13.02 15.0048 13.04 15.1148 13.09C15.2248 13.14 15.3448 13.2 15.4648 13.29L17.1248 14.47C17.2548 14.56 17.3448 14.67 17.4048 14.79C17.4048 14.91 17.4348 15.03 17.4348 15.17V15.17Z" stroke="black" stroke-width="1.5" stroke-miterlimit="10"/>
</svg>
